<svg width="675" height="365" viewBox="0 0 675 365" fill="none" xmlns="http://www.w3.org/2000/svg">
<path d="M610.41 259.088H610.339C624.285 239.663 631.841 216.31 631.841 192.019C631.841 167.727 624.085 143.677 609.385 123.768C609.3 119.883 608.873 113.508 607.236 106.763L610.168 102.55L609.015 99.3201C608.844 98.8363 604.945 87.9925 601.217 78.771L603.124 70.3607L601.943 68.1692C601.658 67.6427 594.742 54.9916 575.829 33.8875L566.608 23.3711L565.171 39.2525C564.914 42.0275 566.38 62.2066 555.351 83.5098C542.942 79.0557 529.95 76.8072 516.644 76.8072C453.118 76.8072 401.433 128.493 401.433 192.019C401.433 216.31 408.989 239.649 422.935 259.088H421.213V271.226H410.896V340.772H621.609V271.226H610.396V259.088H610.41Z" fill="#F2F2F2"/>
<path d="M463.052 168.816C463.052 168.816 467.648 163.565 473.682 164.276C473.682 164.276 467.791 159.395 465.741 157.047C465.741 157.047 464.631 158.84 462.881 160.733C461.131 162.625 461.017 166.339 463.052 168.816Z" fill="#384B43"/>
<path d="M467.62 155.011C467.62 155.011 472.785 145.562 490.474 135.273L487.528 143.968C487.528 143.968 493.192 151.07 504.918 149.789C504.918 149.789 515.648 143.399 517.014 123.434L519.163 128.542L528.242 125.483C528.242 125.483 531.416 143.456 516.559 157.032C516.559 157.032 508.049 165.4 490.929 167.321C490.929 167.321 496.707 194.43 524.044 212.461L531.985 209.515L573.197 220.786L562.766 235.372L565.64 240.822L511.237 213.144C511.237 213.144 479.815 200.663 484.127 166.88C484.127 166.88 472.131 161.586 467.62 155.011Z" fill="#384B43"/>
<path d="M494.245 169.602L496.209 175.123C496.209 175.123 516.246 173.615 528.498 155.926C540.751 138.237 536.211 121.445 536.211 121.445L530.619 124.32C530.619 124.32 533.038 141.098 522.749 154.261C512.46 167.41 496.906 169.417 494.245 169.616V169.602Z" fill="#384B43"/>
<path d="M550.157 147.742C550.84 145.593 551.41 143.416 551.879 141.224C552.178 139.815 552.42 138.421 552.619 137.055C548.236 138.364 543.455 139.403 538.261 140.057C537.72 142.647 536.966 145.237 535.927 147.813C538.133 148.112 543.213 148.553 550.157 147.756V147.742Z" fill="#384B43"/>
<path d="M543.924 161.906C539.314 161.322 534.504 160.269 529.594 158.59C527.958 160.682 526.207 162.546 524.4 164.225C526.065 165.264 530.818 167.968 538.004 170.287C540.139 167.811 542.131 164.979 543.924 161.906Z" fill="#384B43"/>
<path d="M538.645 137.866C540.779 137.553 546.144 136.585 552.961 134.237C553.316 130.665 553.331 127.236 553.032 124.02C548.905 126.325 544.351 128.388 539.313 130.039C539.271 132.586 539.071 135.205 538.645 137.866Z" fill="#384B43"/>
<path d="M552.719 121.454C552.164 117.939 551.196 114.709 549.816 111.82C546.5 114.61 542.8 117.299 538.63 119.789C538.986 122.308 539.242 125.026 539.299 127.872C541.292 127.189 546.415 125.254 552.719 121.454Z" fill="#384B43"/>
<path d="M588.978 72.0064C588.978 72.0064 583.983 62.9273 577.181 55.5273C577.181 55.5273 578.063 86.0948 552.192 109.746C553.757 112.806 554.853 116.164 555.508 119.708C567.661 111.696 582.859 97.0666 588.964 72.0207L588.978 72.0064Z" fill="#384B43"/>
<path d="M555.864 136.001C555.408 139.772 554.597 143.557 553.516 147.272C565.057 145.379 580.625 140 596.549 125.983C596.549 125.983 596.094 114.185 593.902 106.629C593.902 106.629 583.286 126.58 555.864 136.001Z" fill="#384B43"/>
<path d="M555.935 122.311C556.376 125.783 556.433 129.412 556.163 133.084C568.8 128.217 585.094 118.739 595.496 100.666C595.496 100.666 590.957 87.5884 588.011 82.75C588.011 82.75 580.583 107.027 555.949 122.325L555.935 122.311Z" fill="#384B43"/>
<path d="M549.361 150.105C544.821 150.461 540.054 150.39 535.087 149.707C534.518 150.931 533.892 152.155 533.181 153.35C532.498 154.503 531.772 155.613 531.032 156.666C532.796 157.335 537.763 159.014 545.106 159.754C546.728 156.709 548.165 153.45 549.347 150.091L549.361 150.105Z" fill="#384B43"/>
<path d="M547.269 162.24C545.447 165.499 543.412 168.544 541.207 171.234C551.253 173.995 565.128 175.645 581.536 171.874L587.997 154.484C587.997 154.484 570.408 164.062 547.269 162.24Z" fill="#384B43"/>
<path d="M519.448 191.6C518.494 190.846 517.598 190.092 516.73 189.352C512.418 191.287 508.789 192.454 506.555 193.066C510.895 198.687 516.787 204.706 524.485 209.303L541.818 204.237C534.902 201.22 525.951 196.78 519.448 191.614V191.6Z" fill="#384B43"/>
<path d="M548.45 160.023C559.322 160.607 574.364 158.984 591.626 150.375L593.888 131.277C593.888 131.277 577.21 146.618 552.719 149.763C551.538 153.321 550.101 156.764 548.436 160.023H548.45Z" fill="#384B43"/>
<path d="M504.406 175.805C501.332 176.815 498.827 177.37 497.333 177.64C498.286 179.846 500.634 184.756 504.605 190.391C506.227 189.978 509.771 188.954 514.211 187.061C509.443 182.564 506.256 178.48 504.42 175.805H504.406Z" fill="#384B43"/>
<path d="M528.641 178.835C531.145 176.985 533.636 174.865 535.998 172.46C531.359 170.909 526.791 168.774 522.536 165.871C520.615 167.465 518.665 168.86 516.715 170.069C519.063 172.375 522.806 175.377 528.641 178.835Z" fill="#384B43"/>
<path d="M539.271 173.469C539.086 173.668 538.915 173.853 538.73 174.052C536.41 176.471 533.991 178.606 531.558 180.499C547.539 189.08 566.594 192.509 577.338 193.833L584.154 191.841L569.027 187.529L577.195 175.134C577.195 175.134 558.325 178.791 539.285 173.469H539.271Z" fill="#384B43"/>
<path d="M513.983 171.664C511.692 172.916 509.472 173.913 507.409 174.724C509.344 177.442 512.56 181.412 517.228 185.681C519.96 184.372 522.906 182.736 525.894 180.757C520.074 177.2 516.346 174.083 513.983 171.664Z" fill="#384B43"/>
<path d="M546.486 202.856L570.151 195.926C558.653 194.062 542.672 190.234 528.854 182.492C525.738 184.669 522.664 186.448 519.775 187.9C520.287 188.327 520.814 188.768 521.369 189.195C528.669 195.001 539.527 199.982 546.5 202.856H546.486Z" fill="#384B43"/>
<path d="M496.023 205.449L505.103 212.436L495.155 222.156C495.155 222.156 486.048 213.219 496.023 205.449Z" fill="#384B43"/>
<path d="M513.044 216.789L524.201 222.154V235.616C524.201 235.616 513.044 234.478 513.044 225.641V216.789Z" fill="#384B43"/>
<path d="M524.187 241.752V237.71L518.85 236.629V240.101C518.85 240.101 522.18 240.656 524.187 241.752Z" fill="#384B43"/>
<path d="M490.09 218.98L493.562 223.52L490.588 226.878L488.083 221.243L490.09 218.98Z" fill="#384B43"/>
<path d="M469.712 217.316L474.82 215.693C474.82 215.693 471.149 213.544 464.574 215.693C464.574 215.693 467.406 216.149 469.712 217.316Z" fill="#384B43"/>
<path d="M471.946 219.894C479.887 219.894 486.305 226.539 486.305 234.75C486.305 235.732 486.205 236.7 486.034 237.625C487.742 235.547 488.766 232.886 488.766 229.983C488.766 223.323 483.373 217.93 476.713 217.93C474.166 217.93 471.818 218.712 469.868 220.064C470.537 219.965 471.234 219.908 471.932 219.908L471.946 219.894Z" fill="#384B43"/>
<path d="M502.741 250.491L504.918 245.652C504.918 245.652 500.905 246.933 498.144 253.209C498.144 253.209 500.35 251.416 502.741 250.491Z" fill="#384B43"/>
<path d="M506.114 251.071C511.351 245.222 520.515 244.866 526.563 250.288C527.289 250.943 527.943 251.64 528.513 252.394C528.1 249.761 526.819 247.243 524.67 245.322C519.761 240.924 512.204 241.337 507.807 246.261C506.128 248.139 505.16 250.388 504.861 252.707C505.231 252.138 505.644 251.597 506.114 251.071Z" fill="#384B43"/>
<path d="M516.872 258.914L512.233 262.301L513.997 267.766H519.747L521.526 262.301L516.872 258.914Z" fill="#384B43"/>
<path d="M516.786 250.045C514.936 250.045 513.186 250.43 511.592 251.099L516.886 253.973L522.123 251.155C520.486 250.444 518.693 250.031 516.801 250.031L516.786 250.045Z" fill="#384B43"/>
<path d="M506.398 255.102C504.62 257.35 503.552 260.196 503.552 263.284C503.552 263.91 503.595 264.522 503.68 265.134L507.821 261.036L506.398 255.102Z" fill="#384B43"/>
<path d="M515.079 276.402L511.55 271.322L505.985 270.938C508.077 273.883 511.336 275.932 515.079 276.416V276.402Z" fill="#384B43"/>
<path d="M527.046 254.941L525.652 260.591L529.878 265.131C529.964 264.533 530.006 263.921 530.006 263.295C530.006 260.136 528.896 257.233 527.046 254.956V254.941Z" fill="#384B43"/>
<path d="M527.488 271.051L521.355 271.321L518.694 276.373C522.294 275.847 525.425 273.868 527.474 271.051H527.488Z" fill="#384B43"/>
<path d="M458.982 291.582H456.107L446.174 310.551L436.241 291.582H428.201V322.804H435.857V307.364L443.94 322.804H448.408L456.491 307.364V322.804H464.147V291.582H458.996H458.982ZM461.671 320.3H459.124V297.032L446.942 320.3H445.562L433.381 297.047V320.3H430.833V294.186H434.775L446.245 316.116L457.715 294.186H461.657V320.3H461.671Z" fill="#384B43"/>
<path d="M475.389 310.516H492.338V302.916H475.389V298.818H493.391V291.219H467.733V322.811H494.416V315.212H475.389V310.516ZM491.968 317.816V320.32H470.395V293.823H490.944V296.328H472.942V305.535H489.891V308.039H472.942V317.83H491.968V317.816Z" fill="#384B43"/>
<path d="M527.018 291.582H517.768L512.048 299.992L506.213 291.582H496.892L507.437 306.78L496.536 322.804H505.786L512.104 313.511L518.551 322.804H527.872L516.715 306.738L527.018 291.596V291.582ZM523.09 320.3H519.988L512.19 309.057L504.548 320.3H501.46L510.624 306.809L501.858 294.186H504.961L512.161 304.546L519.206 294.186H522.294L513.713 306.795L523.09 320.3Z" fill="#384B43"/>
<path d="M529.708 322.804H537.364V291.582H529.708V322.804ZM532.355 294.186H534.902V320.3H532.355V294.186Z" fill="#384B43"/>
<path d="M589.064 291.129C580.07 291.129 572.756 298.443 572.756 307.437C572.756 316.431 580.07 323.746 589.064 323.746C598.058 323.746 605.372 316.431 605.372 307.437C605.372 298.443 598.058 291.129 589.064 291.129ZM589.15 321.241C581.565 321.241 575.403 315.079 575.403 307.494C575.403 299.909 581.565 293.747 589.15 293.747C596.734 293.747 602.896 299.909 602.896 307.494C602.896 315.079 596.734 321.241 589.15 321.241Z" fill="#384B43"/>
<path d="M589.149 296.297C582.973 296.297 577.95 301.32 577.95 307.496C577.95 313.672 582.973 318.696 589.149 318.696C595.325 318.696 600.349 313.672 600.349 307.496C600.349 301.32 595.325 296.297 589.149 296.297ZM589.064 316.092C584.297 316.092 580.412 312.207 580.412 307.439C580.412 302.672 584.297 298.787 589.064 298.787C593.831 298.787 597.716 302.672 597.716 307.439C597.716 312.207 593.831 316.092 589.064 316.092Z" fill="#384B43"/>
<path d="M489.962 286.664L488.866 279.293L473.056 281.655L474.151 289.027L489.962 286.664ZM486.817 282.253L487.158 284.573L476.386 286.181L476.044 283.861L486.817 282.253Z" fill="#384B43"/>
<path d="M563.634 312.35C562.011 314.812 559.322 316.291 556.433 316.291C551.637 316.291 547.738 312.278 547.738 307.355C547.738 302.431 551.637 298.418 556.433 298.418C559.265 298.418 561.94 299.855 563.563 302.274L564.986 304.366L571.361 300.14L569.924 298.005C566.864 293.48 561.827 290.762 556.433 290.762C547.425 290.762 540.082 298.204 540.082 307.355C540.082 316.505 547.411 323.948 556.433 323.948C561.883 323.948 566.964 321.187 570.023 316.576L571.432 314.456L565.057 310.215L563.648 312.35H563.634ZM567.988 315.224C565.512 318.981 561.3 321.457 556.533 321.457C548.933 321.457 542.743 315.153 542.743 307.412C542.743 299.67 548.933 293.366 556.533 293.366C561.243 293.366 565.413 295.785 567.903 299.485L565.783 300.894C563.748 297.891 560.361 295.927 556.533 295.927C550.328 295.927 545.29 301.079 545.29 307.426C545.29 313.773 550.328 318.91 556.533 318.91C560.418 318.91 563.847 316.889 565.868 313.83L567.988 315.238V315.224Z" fill="#384B43"/>
<path d="M513.044 97.2695C500.165 97.2695 491.057 100.614 490.673 100.756L487.386 101.98L491.541 107.217C485.223 109.138 478.591 112.425 474.593 114.546L474.28 106.776L470.622 108.91C463.35 113.151 457.16 118.132 452.051 123.027L457.046 125.375C460.689 122.002 464.845 118.644 469.527 115.584L469.84 123.169L473.511 120.992C473.639 120.921 486.746 113.208 496.479 111.201L500.535 110.362L495.896 104.513C499.482 103.588 505.615 102.378 513.03 102.378V97.2695H513.044Z" fill="#428A49"/>
<path d="M430.122 171.621L435.558 176.018L436.426 171.962C436.454 171.849 439.059 160.009 446.046 148.297L448.237 144.64L440.866 144.312C442.887 141.281 446.274 136.628 450.941 131.533L448.309 126.809C439.187 136.429 434.462 144.853 434.149 145.422L432.157 149.023L439.614 149.364C435.885 156.394 433.651 162.969 432.484 166.982L427.176 162.684L426.151 166.469C423.946 174.638 423.049 182.223 422.878 188.897L428.044 187.972C428.229 182.977 428.841 177.484 430.136 171.635L430.122 171.621Z" fill="#428A49"/>
<path d="M463.663 263.099C463.663 263.099 461.073 261.106 457.558 257.848L452.862 260.466C455.808 263.27 458.241 265.319 459.55 266.372V277.287H440.211V282.396H464.645V263.867L463.635 263.099H463.663Z" fill="#428A49"/>
<path d="M451.14 251.383C447.825 247.754 444.381 243.471 441.549 238.818L448.323 238.206L446.274 234.733C446.188 234.591 437.764 220.204 436.269 211.594L435.586 207.638L430.335 211.31C429.552 208.222 428.514 203.056 428.115 196.439L422.893 195.016C423.391 207.624 426.279 215.764 426.479 216.305L427.617 219.421L432.157 216.248C434.021 222.481 437.664 229.667 439.927 233.837L433.381 234.435L435.131 237.807C438.774 244.837 443.869 251.156 448.55 256.122L451.14 251.383Z" fill="#428A49"/>
<path d="M570.279 263.099C570.279 263.099 572.869 261.106 576.384 257.848L581.08 260.466C578.135 263.27 575.701 265.319 574.392 266.372V277.287H593.731V282.396H569.297V263.867L570.308 263.099H570.279Z" fill="#D2444C"/>
<path d="M582.803 251.383C586.118 247.754 589.562 243.471 592.394 238.818L585.62 238.206L587.67 234.733C587.755 234.591 596.18 220.204 597.674 211.594L598.357 207.638L603.608 211.31C604.391 208.222 605.429 203.056 605.828 196.439L611.051 195.016C610.553 207.624 607.664 215.764 607.464 216.305L606.326 219.421L601.786 216.248C599.922 222.481 596.279 229.667 594.016 233.837L600.563 234.435L598.812 237.807C595.169 244.837 590.075 251.156 585.393 256.122L582.803 251.383Z" fill="#D2444C"/>
<path d="M546.343 108.569C545.034 108.085 543.725 107.615 542.416 107.217L546.571 101.98L543.284 100.756C542.899 100.614 533.792 97.2695 520.913 97.2695V102.378C528.327 102.378 534.461 103.588 538.047 104.513L533.408 110.362L537.463 111.201C538.943 111.5 540.495 111.941 542.074 112.468L546.329 108.569H546.343Z" fill="#D2444C"/>
<path d="M607.805 166.455L606.781 162.67L601.473 166.968C600.491 163.609 598.755 158.443 596.022 152.723L592.009 156.209C595.937 164.819 597.488 171.891 597.517 171.977L598.385 176.032L603.821 171.635C605.116 177.484 605.728 182.977 605.913 187.972L611.078 188.897C610.908 182.223 609.997 174.638 607.805 166.469V166.455Z" fill="#D2444C"/>
<path d="M596.905 149.222L601.801 148.994L599.808 145.394C599.694 145.194 599.011 143.956 597.745 142.035L596.905 149.222Z" fill="#D2444C"/>
<path d="M604.219 265.772H596.805C615.447 245.664 625.651 219.722 625.651 192.071C625.651 167.253 617.269 144.37 603.209 126.055C603.237 123.28 603.109 114.344 600.462 105.563L603.209 101.636C603.209 101.636 598.655 88.9418 594.713 79.4073L596.535 71.3954C596.535 71.3954 589.917 59.1428 571.318 38.3945C571.318 38.3945 574.107 67.1831 558.71 91.8164C545.873 86.4657 531.814 83.5057 517.071 83.5057C457.202 83.5057 408.491 132.217 408.491 192.086C408.491 219.736 418.694 245.678 437.336 265.786H428.271V277.925H417.954V334.193H615.405V277.925H604.191V265.786L604.219 265.772ZM575.032 50.0779C575.032 50.0779 584.154 58.3886 591.71 71.3954L589.747 79.265C589.747 79.265 597.317 94.7622 598.043 101.223L596.051 103.599C596.051 103.599 599.452 117.175 599.11 126.938L596.535 129.229C596.535 129.229 596.492 142.492 593.888 151.912L590.942 153.051L583.585 173.998L583.542 174.055C584.353 177.129 584.979 180.288 585.378 183.519C585.577 185.17 585.719 186.806 585.805 188.414V188.457L598.043 191.972L585.876 194.903H585.833V194.96C585.762 196.554 585.634 198.176 585.463 199.77V199.856C583.983 212.763 578.889 224.958 570.706 235.105C569.696 236.357 568.628 237.595 567.518 238.791L567.49 238.819L573.026 248.61L563.391 242.932L563.349 242.903L563.32 242.932C562.153 243.999 560.93 245.024 559.706 245.991L559.606 246.062C551.964 252.068 543.369 256.309 534.176 258.642C533.607 258.742 533.052 258.827 532.482 258.913C533.151 260.649 533.521 262.513 533.521 264.463C533.521 273.286 526.036 280.458 516.857 280.458C507.678 280.458 500.193 273.286 500.193 264.463C500.193 262.527 500.563 260.663 501.218 258.941C500.136 258.699 499.581 258.514 499.581 258.514C490.474 256.138 481.949 251.869 474.379 245.863C473.112 244.853 471.874 243.8 470.679 242.718L470.65 242.69L460.618 248.61L466.353 238.463L466.381 238.421L466.353 238.392C465.271 237.211 464.204 235.959 463.179 234.678C455.167 224.574 450.172 212.464 448.749 199.671C448.578 198.091 448.45 196.469 448.379 194.861V194.818L436.568 191.972L448.351 188.585H448.393V188.528C448.479 186.92 448.607 185.269 448.806 183.633C450.343 170.953 455.395 158.957 463.407 148.952L463.492 148.853C464.474 147.643 465.499 146.448 466.566 145.295L466.595 145.267L460.347 134.935L471.063 140.798L471.106 140.827L471.134 140.798C472.344 139.703 473.624 138.635 474.919 137.639L475.019 137.568C484.867 129.94 496.593 125.13 508.945 123.665H508.959C510.596 123.465 512.232 123.337 513.84 123.252H513.883L517.085 112.081L519.76 123.181V123.223H519.817C520.685 123.252 521.539 123.309 522.407 123.38C524.044 123.408 526.15 123.309 527.801 122.768C527.801 122.768 527.815 122.768 527.843 122.754C528.099 122.668 528.37 122.555 528.64 122.441C534.916 119.865 574.449 101.579 575.046 50.0779H575.032ZM610.324 283.02V329.084H423.091V283.02H433.409V270.881H449.745L445.206 266.498C424.842 246.817 413.614 220.39 413.614 192.086C413.614 135.035 460.034 88.6145 517.085 88.6145C530.761 88.6145 543.839 91.2899 555.807 96.1425C549.787 104.354 541.505 111.867 530.106 117.346C529.38 116.848 528.427 116.535 527.388 116.535C525.581 116.535 524.044 117.446 523.531 118.712L517.526 93.8372L517.469 93.5952L510.439 118.129C509.671 117.19 508.29 116.564 506.725 116.564C504.306 116.564 502.342 118.058 502.342 119.893C502.342 119.908 502.342 119.936 502.342 119.95C490.673 122.313 479.786 127.478 470.508 135.12L447.241 122.384L460.774 144.754C452.905 154.104 447.582 165.104 445.135 176.944C445.135 176.944 445.12 176.944 445.106 176.944C443.27 176.944 441.776 178.908 441.776 181.327C441.776 182.935 442.445 184.344 443.427 185.113L418.068 192.384L443.712 198.575C442.673 199.229 441.961 200.61 441.961 202.218C441.961 204.424 443.313 206.202 444.992 206.274C447.34 218.327 452.677 229.541 460.632 239.061L447.952 261.46L447.839 261.674L470.124 248.539C476.684 254.017 484.056 258.258 492.039 261.147C493.263 261.588 494.501 262.001 495.739 262.371C495.668 263.082 495.611 263.794 495.611 264.505C495.611 275.876 505.131 285.083 516.871 285.083C528.612 285.083 538.132 275.861 538.132 264.505C538.132 263.837 538.089 263.168 538.018 262.513C539.384 262.115 540.736 261.674 542.074 261.19C550 258.329 557.343 254.146 563.89 248.724L585.833 261.659L573.268 239.459C581.436 229.84 586.886 218.455 589.263 206.202C590.743 205.889 591.867 204.224 591.867 202.204C591.867 200.709 591.255 199.414 590.33 198.717L599.409 196.526L616.329 192.441L616.571 192.384L590.615 184.942C591.369 184.145 591.839 182.907 591.839 181.541C591.839 179.406 590.686 177.642 589.163 177.243C588.864 175.735 588.509 174.255 588.11 172.775C588.11 172.775 592.849 161.76 593.916 156.879L597.773 154.517C597.773 154.517 600.035 141.894 600.647 131.306L600.704 131.221C613.199 148.312 620.57 169.373 620.57 192.114C620.57 220.419 609.356 246.845 588.978 266.526L584.439 270.909H599.125V283.048H610.338L610.324 283.02Z" fill="#384B43"/>
<path d="M42.3647 126.188H133.854V145.854H63.9669V179.396H125.956V199.063H63.9669V249.112H42.3647V126.188Z" fill="#F2F2F2"/>
<path d="M169.516 125.301H189.538L243.629 249.107H220.803L208.337 219.422H150.205L137.553 249.107H115.425L169.516 125.301ZM200.425 200.296L179.178 151.129L158.103 200.296H200.425Z" fill="#F2F2F2"/>
<path d="M247.144 126.188H267.167L333.026 211.187V126.188H354.272V249.112H336.185L268.405 161.65V249.112H247.158V126.188H247.144Z" fill="#F2F2F2"/>
</svg>
