<svg width="238" height="238" viewBox="0 0 238 238" fill="none" xmlns="http://www.w3.org/2000/svg">
<g clip-path="url(#clip0_300_1132)">
<path d="M186.045 177.121H185.992C196.463 162.556 202.137 145.045 202.137 126.83C202.137 108.615 196.313 90.5815 185.276 75.6531C185.212 72.74 184.891 67.9595 183.662 62.9016L185.864 59.743L184.998 57.3208C184.87 56.958 181.942 48.8269 179.143 41.9123L180.574 35.6058L179.688 33.9626C179.474 33.5677 174.281 24.0815 160.081 8.25676L153.157 0.371094L152.078 12.2796C151.885 14.3604 152.986 29.4915 144.705 45.4656C135.388 42.1257 125.632 40.4397 115.642 40.4397C67.9444 40.4397 29.1367 79.1958 29.1367 126.83C29.1367 145.045 34.8104 162.545 45.2817 177.121H43.9888V186.223H36.2422V238.371H194.454V186.223H186.034V177.121H186.045Z" fill="#F2F2F2"/>
<path d="M75.2529 109.371C75.2529 109.371 78.6618 105.355 83.1367 105.9C83.1367 105.9 78.7674 102.167 77.2476 100.371C77.2476 100.371 76.4244 101.742 75.1262 103.19C73.8281 104.637 73.7437 107.478 75.2529 109.371Z" fill="#384B43"/>
<path d="M79.1367 99.0433C79.1367 99.0433 83.0021 91.9598 96.2379 84.2468L94.0337 90.765C94.0337 90.765 98.2718 96.0883 107.046 95.1282C107.046 95.1282 115.075 90.3382 116.097 75.3711L117.705 79.2009L124.499 76.9073C124.499 76.9073 126.873 90.3809 115.756 100.558C115.756 100.558 109.389 106.831 96.5787 108.271C96.5787 108.271 100.902 128.594 121.357 142.11L127.299 139.902L158.137 148.351L150.331 159.285L152.482 163.371L111.774 142.622C111.774 142.622 88.2623 133.266 91.4888 107.94C91.4888 107.94 82.5122 103.972 79.1367 99.0433Z" fill="#384B43"/>
<path d="M99.1367 110.257L100.605 114.371C100.605 114.371 115.59 113.247 124.753 100.066C133.917 86.8844 130.522 74.3711 130.522 74.3711L126.339 76.5132C126.339 76.5132 128.148 89.0158 120.454 98.825C112.759 108.623 101.127 110.119 99.1367 110.267V110.257Z" fill="#384B43"/>
<path d="M141.219 93.9955C141.751 92.2614 142.195 90.5044 142.56 88.7359C142.793 87.599 142.982 86.4735 143.137 85.3711C139.723 86.4276 135.999 87.2659 131.954 87.7942C131.533 89.8843 130.946 91.9743 130.137 94.0529C131.855 94.2941 135.811 94.6501 141.219 94.007V93.9955Z" fill="#384B43"/>
<path d="M136.137 104.639C132.594 104.24 128.899 103.52 125.127 102.371C123.87 103.802 122.525 105.077 121.137 106.225C122.416 106.936 126.067 108.785 131.589 110.371C133.229 108.678 134.759 106.741 136.137 104.639Z" fill="#384B43"/>
<path d="M132.137 86.3711C133.745 86.145 137.788 85.4461 142.924 83.7503C143.192 81.1707 143.203 78.6938 142.978 76.3711C139.868 78.036 136.437 79.5263 132.641 80.7185C132.609 82.5581 132.458 84.4492 132.137 86.3711Z" fill="#384B43"/>
<path d="M143.137 74.5732C142.703 71.9456 141.948 69.5307 140.87 67.3711C138.281 69.4562 135.392 71.4668 132.137 73.3285C132.414 75.2115 132.614 77.2434 132.659 79.3711C134.214 78.8605 138.214 77.4136 143.137 74.5732Z" fill="#384B43"/>
<path d="M170.137 36.6957C170.137 36.6957 166.335 29.9055 161.157 24.3711C161.157 24.3711 161.829 47.2323 142.137 64.921C143.328 67.2092 144.162 69.721 144.66 72.3711C153.911 66.3791 165.479 55.4381 170.126 36.7063L170.137 36.6957Z" fill="#384B43"/>
<path d="M144.883 85.0518C144.544 87.8354 143.941 90.6295 143.137 93.3711C151.719 91.974 163.295 88.0034 175.137 77.6568C175.137 77.6568 174.798 68.9488 173.168 63.3711C173.168 63.3711 165.274 78.098 144.883 85.0518Z" fill="#384B43"/>
<path d="M145.137 75.2382C145.471 77.8596 145.514 80.5993 145.309 83.3711C154.892 79.6968 167.248 72.5416 175.137 58.8972C175.137 58.8972 171.694 49.0239 169.46 45.3711C169.46 45.3711 163.827 63.6996 145.148 75.249L145.137 75.2382Z" fill="#384B43"/>
<path d="M140.137 95.6487C136.669 95.8966 133.028 95.847 129.235 95.3711C128.8 96.2238 128.322 97.0765 127.778 97.9093C127.256 98.7125 126.702 99.4858 126.137 100.22C127.485 100.686 131.278 101.856 136.887 102.371C138.126 100.249 139.224 97.9787 140.126 95.6388L140.137 95.6487Z" fill="#384B43"/>
<path d="M138.671 104.913C137.309 107.242 135.787 109.418 134.137 111.34C141.652 113.313 152.031 114.492 164.304 111.798L169.137 99.3711C169.137 99.3711 155.98 106.215 138.671 104.913Z" fill="#384B43"/>
<path d="M117.643 127.062C116.94 126.494 116.279 125.927 115.639 125.371C112.46 126.826 109.784 127.703 108.137 128.164C111.337 132.39 115.681 136.915 121.357 140.371L134.137 136.562C129.037 134.294 122.438 130.956 117.643 127.072V127.062Z" fill="#384B43"/>
<path d="M139.147 103.29C147.28 103.735 158.532 102.498 171.444 95.933L173.137 81.3711C173.137 81.3711 160.661 93.0683 142.341 95.4664C141.457 98.1791 140.382 100.805 139.137 103.29H139.147Z" fill="#384B43"/>
<path d="M106.584 114.371C104.217 115.133 102.288 115.552 101.137 115.755C101.871 117.419 103.68 121.121 106.738 125.371C107.987 125.06 110.717 124.287 114.137 122.86C110.465 119.469 108.009 116.389 106.595 114.371H106.584Z" fill="#384B43"/>
<path d="M124.795 117.371C126.613 115.944 128.422 114.309 130.137 112.453C126.768 111.257 123.452 109.61 120.363 107.371C118.968 108.601 117.552 109.676 116.137 110.609C117.842 112.388 120.559 114.704 124.795 117.371Z" fill="#384B43"/>
<path d="M132.856 113.371C132.719 113.518 132.592 113.654 132.455 113.801C130.735 115.583 128.941 117.155 127.137 118.549C138.987 124.87 153.116 127.396 161.082 128.371L166.137 126.904L154.92 123.727L160.977 114.598C160.977 114.598 146.985 117.291 132.866 113.371H132.856Z" fill="#384B43"/>
<path d="M114.116 111.371C112.381 112.354 110.699 113.136 109.137 113.772C110.602 115.905 113.038 119.021 116.573 122.371C118.642 121.344 120.873 120.059 123.137 118.507C118.729 115.715 115.905 113.27 114.116 111.371Z" fill="#384B43"/>
<path d="M138.285 135.371L156.137 130.266C147.463 128.893 135.408 126.073 124.985 120.371C122.634 121.975 120.316 123.285 118.137 124.354C118.523 124.669 118.92 124.994 119.339 125.308C124.846 129.585 133.036 133.254 138.296 135.371H138.285Z" fill="#384B43"/>
<path d="M100.534 137.371L107.137 142.39L99.9022 149.371C99.9022 149.371 93.2783 142.952 100.534 137.371Z" fill="#384B43"/>
<path d="M113.137 145.371L121.137 149.361V159.371C121.137 159.371 113.137 158.525 113.137 151.953V145.371Z" fill="#384B43"/>
<path d="M121.137 164.371V161.216L117.137 160.371V163.082C117.137 163.082 119.633 163.516 121.137 164.371Z" fill="#384B43"/>
<path d="M95.6017 147.371L98.1367 150.82L95.9653 153.371L94.1367 149.09L95.6017 147.371Z" fill="#384B43"/>
<path d="M80.6465 146.371L84.1367 145.112C84.1367 145.112 81.6284 143.445 77.1367 145.112C77.1367 145.112 79.0715 145.466 80.6465 146.371Z" fill="#384B43"/>
<path d="M82.6759 147.867C88.5584 147.867 93.3129 152.928 93.3129 159.182C93.3129 159.93 93.2391 160.667 93.1126 161.371C94.3777 159.789 95.1367 157.762 95.1367 155.551C95.1367 150.479 91.1412 146.371 86.2075 146.371C84.3205 146.371 82.581 146.967 81.1367 147.997C81.6322 147.921 82.1488 147.878 82.6653 147.878L82.6759 147.867Z" fill="#384B43"/>
<path d="M105.53 170.573L107.137 167.371C107.137 167.371 104.175 168.219 102.137 172.371C102.137 172.371 103.765 171.185 105.53 170.573Z" fill="#384B43"/>
<path d="M108.09 171.116C112.075 166.63 119.05 166.357 123.653 170.515C124.205 171.018 124.704 171.552 125.137 172.131C124.823 170.112 123.848 168.18 122.213 166.706C118.476 163.333 112.725 163.65 109.379 167.426C108.101 168.867 107.364 170.592 107.137 172.371C107.418 171.934 107.732 171.52 108.09 171.116Z" fill="#384B43"/>
<path d="M115.631 177.371L112.137 179.667L113.466 183.371H117.797L119.137 179.667L115.631 177.371Z" fill="#384B43"/>
<path d="M116.083 170.382C114.677 170.382 113.348 170.674 112.137 171.183L116.158 173.371L120.137 171.227C118.893 170.685 117.531 170.371 116.093 170.371L116.083 170.382Z" fill="#384B43"/>
<path d="M108.137 174.371C106.887 175.94 106.137 177.926 106.137 180.08C106.137 180.517 106.167 180.944 106.227 181.371L109.137 178.512L108.137 174.371Z" fill="#384B43"/>
<path d="M114.137 190.361L111.808 186.652L108.137 186.371C109.517 188.522 111.667 190.018 114.137 190.371V190.361Z" fill="#384B43"/>
<path d="M123.418 174.371L122.137 178.252L126.019 181.371C126.098 180.96 126.137 180.54 126.137 180.11C126.137 177.94 125.117 175.945 123.418 174.381V174.371Z" fill="#384B43"/>
<path d="M124.137 186.371L119.255 186.574L117.137 190.371C120.002 189.975 122.494 188.489 124.125 186.371H124.137Z" fill="#384B43"/>
<path d="M72.2567 201.371H70.0975L62.6367 215.953L55.1759 201.371H49.1367V225.371H54.8873V213.502L60.9586 225.371H64.3149L70.3861 213.502V225.371H76.1367V201.371H72.2674H72.2567ZM74.2769 223.446H72.3636V205.561L63.2139 223.446H62.1771L53.0275 205.572V223.446H51.1142V203.373H54.075L62.6901 220.23L71.3054 203.373H74.2662V223.446H74.2769Z" fill="#384B43"/>
<path d="M84.8754 216.031H97.5794V210.258H84.8754V207.144H98.3687V201.371H79.1367V225.371H99.1367V219.598H84.8754V216.031ZM97.3021 221.577V223.479H81.1314V203.349H96.5341V205.252H83.0407V212.247H95.7447V214.149H83.0407V221.587H97.3021V221.577Z" fill="#384B43"/>
<path d="M123.51 201.371H116.721L112.522 207.836L108.239 201.371H101.398L109.138 213.054L101.137 225.371H107.926L112.564 218.228L117.295 225.371H124.137L115.948 213.021L123.51 201.382V201.371ZM120.627 223.446H118.35L112.626 214.804L107.017 223.446H104.751L111.477 213.076L105.043 203.373H107.32L112.605 211.336L117.776 203.373H120.042L113.744 213.065L120.627 223.446Z" fill="#384B43"/>
<path d="M125.137 225.371H131.137V201.371H125.137V225.371ZM127.211 203.373H129.207V223.446H127.211V203.373Z" fill="#384B43"/>
<path d="M170.137 201.371C163.519 201.371 158.137 206.753 158.137 213.371C158.137 219.989 163.519 225.371 170.137 225.371C176.755 225.371 182.137 219.989 182.137 213.371C182.137 206.753 176.755 201.371 170.137 201.371ZM170.2 223.528C164.618 223.528 160.084 218.994 160.084 213.413C160.084 207.832 164.618 203.298 170.2 203.298C175.781 203.298 180.315 207.832 180.315 213.413C180.315 218.994 175.781 223.528 170.2 223.528Z" fill="#384B43"/>
<path d="M170.137 205.371C165.725 205.371 162.137 208.959 162.137 213.371C162.137 217.783 165.725 221.371 170.137 221.371C174.548 221.371 178.137 217.783 178.137 213.371C178.137 208.959 174.548 205.371 170.137 205.371ZM170.076 219.511C166.67 219.511 163.895 216.736 163.895 213.33C163.895 209.925 166.67 207.15 170.076 207.15C173.481 207.15 176.256 209.925 176.256 213.33C176.256 216.736 173.481 219.511 170.076 219.511Z" fill="#384B43"/>
<path d="M96.1367 197.672L95.2941 192.371L83.1367 194.07L83.9793 199.371L96.1367 197.672ZM93.7184 194.5L93.981 196.168L85.6973 197.324L85.4347 195.656L93.7184 194.5Z" fill="#384B43"/>
<path d="M151.167 216.983C149.925 218.764 147.866 219.834 145.654 219.834C141.983 219.834 138.998 216.932 138.998 213.371C138.998 209.81 141.983 206.908 145.654 206.908C147.822 206.908 149.87 207.947 151.112 209.697L152.202 211.21L157.082 208.153L155.982 206.61C153.64 203.337 149.783 201.371 145.654 201.371C138.758 201.371 133.137 206.754 133.137 213.371C133.137 219.989 138.747 225.371 145.654 225.371C149.827 225.371 153.716 223.375 156.058 220.04L157.137 218.507L152.256 215.44L151.178 216.983H151.167ZM154.5 219.062C152.605 221.779 149.38 223.57 145.73 223.57C139.913 223.57 135.174 219.011 135.174 213.412C135.174 207.814 139.913 203.254 145.73 203.254C149.336 203.254 152.528 205.004 154.435 207.68L152.812 208.699C151.254 206.527 148.661 205.107 145.73 205.107C140.981 205.107 137.124 208.832 137.124 213.423C137.124 218.013 140.981 221.728 145.73 221.728C148.705 221.728 151.33 220.266 152.877 218.054L154.5 219.073V219.062Z" fill="#384B43"/>
<path d="M113.137 56.3711C103.424 56.3711 96.5548 58.8698 96.265 58.9762L93.7858 59.8906L96.9197 63.8035C92.1545 65.2389 87.1531 67.6951 84.1372 69.2794L83.9011 63.4739L81.1428 65.0688C75.6584 68.2374 70.9897 71.9589 67.1367 75.6167L70.9039 77.3711C73.6514 74.8511 76.7853 72.3417 80.3164 70.0557L80.5525 75.723L83.3215 74.0962C83.4181 74.043 93.3028 68.28 100.644 66.7807L103.703 66.1534L100.204 61.7833C102.909 61.0921 107.534 60.1883 113.126 60.1883V56.3711H113.137Z" fill="#428A49"/>
<path d="M50.5571 111.572L54.6251 114.829L55.2746 111.825C55.2959 111.74 57.2447 102.968 62.4734 94.2913L64.1134 91.5817L58.5971 91.3392C60.1093 89.0935 62.6438 85.6459 66.1367 81.8714L64.1666 78.3711C57.3406 85.4983 53.8051 91.7399 53.5708 92.1616L52.0799 94.829L57.6601 95.0821C54.87 100.29 53.1981 105.161 52.3249 108.135L48.3527 104.951L47.586 107.755C45.9354 113.807 45.2645 119.426 45.1367 124.371L49.0023 123.686C49.1408 119.985 49.5987 115.915 50.5678 111.582L50.5571 111.572Z" fill="#428A49"/>
<path d="M76.3732 180.222C76.3732 180.222 74.3592 178.761 71.6259 176.371L67.9742 178.291C70.2649 180.347 72.1571 181.849 73.1751 182.622V190.625H58.1367V194.371H77.1367V180.785L76.351 180.222H76.3732Z" fill="#428A49"/>
<path d="M67.1367 171.804C64.5543 169.072 61.8722 165.848 59.6667 162.345L64.9423 161.884L63.3463 159.27C63.2798 159.163 56.7186 148.332 55.5549 141.851L55.0229 138.873L50.9332 141.637C50.3236 139.312 49.5145 135.424 49.2042 130.442L45.1367 129.371C45.5246 138.862 47.7745 144.99 47.9297 145.397L48.8163 147.743L52.3518 145.354C53.8037 150.046 56.641 155.456 58.4032 158.595L53.305 159.045L54.6682 161.584C57.5055 166.876 61.4733 171.632 65.1196 175.371L67.1367 171.804Z" fill="#428A49"/>
<path d="M155.86 180.222C155.86 180.222 157.768 178.761 160.357 176.371L163.817 178.291C161.647 180.347 159.854 181.849 158.89 182.622V190.625H173.137V194.371H155.137V180.785L155.881 180.222H155.86Z" fill="#D2444C"/>
<path d="M165.137 171.804C167.602 169.072 170.162 165.848 172.267 162.345L167.231 161.884L168.755 159.27C168.818 159.163 175.081 148.332 176.192 141.851L176.7 138.873L180.604 141.637C181.186 139.312 181.958 135.424 182.254 130.442L186.137 129.371C185.766 138.862 183.619 144.99 183.471 145.397L182.624 147.743L179.25 145.354C177.864 150.046 175.155 155.456 173.473 158.595L178.34 159.045L177.038 161.584C174.33 166.876 170.543 171.632 167.062 175.371L165.137 171.804Z" fill="#D2444C"/>
<path d="M137.968 64.549C136.999 64.1988 136.029 63.8589 135.06 63.5705L138.137 59.7803L135.702 58.8945C135.418 58.7915 128.674 56.3711 119.137 56.3711V60.0687C124.627 60.0687 129.169 60.9441 131.824 61.6136L128.389 65.8468L131.392 66.4544C132.488 66.6707 133.637 66.99 134.807 67.3711L137.958 64.549H137.968Z" fill="#D2444C"/>
<path d="M183.734 107.621L182.982 104.796L179.084 108.003C178.364 105.497 177.089 101.641 175.083 97.3711L172.137 99.9734C175.02 106.399 176.159 111.678 176.18 111.742L176.817 114.769L180.808 111.487C181.759 115.853 182.208 119.953 182.344 123.681L186.137 124.371C186.011 119.39 185.343 113.728 183.734 107.632V107.621Z" fill="#D2444C"/>
<path d="M176.137 95.3711L179.137 95.181L177.916 92.1751C177.846 92.0087 177.427 90.9751 176.651 89.3711L176.137 95.3711Z" fill="#D2444C"/>
<path d="M181.149 182.252H175.618C189.525 167.228 197.137 147.846 197.137 127.188C197.137 108.645 190.884 91.5488 180.395 77.8652C180.417 75.7919 180.321 69.1149 178.346 62.5549L180.395 59.6204C180.395 59.6204 176.998 50.1365 174.058 43.013L175.416 37.0271C175.416 37.0271 170.48 27.8728 156.605 12.3711C156.605 12.3711 158.686 33.8799 147.199 52.2842C137.623 48.2865 127.135 46.075 116.137 46.075C71.4753 46.075 35.1367 82.4689 35.1367 127.198C35.1367 147.857 42.7484 167.239 56.6553 182.262H49.893V191.332H42.1964V233.371H189.493V191.332H181.128V182.262L181.149 182.252ZM159.376 21.1001C159.376 21.1001 166.18 27.3093 171.818 37.0271L170.353 42.9066C170.353 42.9066 176 54.4851 176.542 59.3121L175.055 61.0876C175.055 61.0876 177.593 71.2307 177.338 78.5244L175.416 80.2361C175.416 80.2361 175.385 90.1453 173.442 97.1838L171.244 98.0344L165.756 113.685L165.724 113.727C166.329 116.024 166.796 118.384 167.093 120.798C167.242 122.031 167.348 123.254 167.412 124.455V124.487L176.542 127.113L167.465 129.304H167.433V129.346C167.38 130.537 167.285 131.749 167.157 132.94V133.004C166.053 142.647 162.253 151.759 156.148 159.339C155.395 160.275 154.598 161.2 153.77 162.093L153.749 162.114L157.879 169.429L150.692 165.187L150.66 165.166L150.639 165.187C149.768 165.984 148.855 166.75 147.942 167.473L147.868 167.526C142.167 172.013 135.755 175.181 128.897 176.925C128.473 176.999 128.058 177.063 127.634 177.127C128.133 178.424 128.409 179.817 128.409 181.274C128.409 187.865 122.825 193.224 115.978 193.224C109.13 193.224 103.546 187.865 103.546 181.274C103.546 179.828 103.822 178.435 104.311 177.148C103.504 176.968 103.09 176.829 103.09 176.829C96.2954 175.054 89.9365 171.864 84.2888 167.377C83.3439 166.622 82.4203 165.836 81.5286 165.028L81.5074 165.006L74.0231 169.429L78.3013 161.849L78.3226 161.817L78.3013 161.795C77.4945 160.913 76.6983 159.977 75.934 159.02C69.9572 151.472 66.231 142.424 65.1694 132.865C65.042 131.685 64.9464 130.473 64.8933 129.272V129.24L56.0821 127.113L64.8721 124.583H64.904V124.54C64.9677 123.339 65.0632 122.106 65.2118 120.883C66.3584 111.41 70.127 102.447 76.1038 94.9723L76.1675 94.8979C76.9 93.9942 77.6644 93.1011 78.4606 92.2398L78.4818 92.2186L73.8214 84.4996L81.8152 88.8801L81.8471 88.9013L81.8683 88.8801C82.7707 88.0614 83.7261 87.264 84.6922 86.5198L84.7665 86.4666C92.1127 80.7678 100.86 77.1741 110.075 76.079H110.086C111.306 75.9301 112.527 75.8344 113.727 75.7706H113.759L116.147 67.4244L118.143 75.7175V75.7494H118.186C118.833 75.7706 119.47 75.8132 120.118 75.8663C121.339 75.8876 122.91 75.8132 124.141 75.4091C124.141 75.4091 124.152 75.4092 124.173 75.3985C124.364 75.3347 124.566 75.2497 124.768 75.1646C129.449 73.2402 158.94 59.5779 159.386 21.1001H159.376ZM185.703 195.138V229.554H46.0287V195.138H53.7253V186.069H65.9125L62.526 182.794C47.3345 168.09 38.9585 148.346 38.9585 127.198C38.9585 84.5741 73.5878 49.892 116.147 49.892C126.349 49.892 136.105 51.8908 145.033 55.5164C140.543 61.6511 134.364 67.2649 125.861 71.3583C125.32 70.9862 124.608 70.7523 123.833 70.7523C122.485 70.7523 121.339 71.4327 120.956 72.379L116.476 53.794L116.434 53.6132L111.19 71.9431C110.616 71.2413 109.587 70.7735 108.419 70.7735C106.614 70.7735 105.149 71.8899 105.149 73.2615C105.149 73.2721 105.149 73.2933 105.149 73.304C96.4441 75.0689 88.3228 78.9284 81.4012 84.6379L64.0441 75.1221L74.1399 91.8358C68.2692 98.8212 64.2988 107.04 62.4729 115.886C62.4729 115.886 62.4623 115.886 62.4517 115.886C61.0822 115.886 59.9675 117.353 59.9675 119.16C59.9675 120.362 60.4665 121.414 61.199 121.989L42.2813 127.422L61.4113 132.047C60.6363 132.536 60.1055 133.567 60.1055 134.768C60.1055 136.416 61.1141 137.745 62.3668 137.799C64.1184 146.804 68.0994 155.182 74.0337 162.295L64.5749 179.03L64.49 179.19L81.1146 169.376C86.0085 173.47 91.5076 176.638 97.4632 178.796C98.3762 179.126 99.2998 179.434 100.223 179.711C100.17 180.242 100.128 180.774 100.128 181.305C100.128 189.801 107.23 196.68 115.988 196.68C124.746 196.68 131.848 189.79 131.848 181.305C131.848 180.806 131.817 180.306 131.763 179.817C132.783 179.519 133.791 179.19 134.789 178.828C140.702 176.691 146.18 173.565 151.063 169.514L167.433 179.179L158.059 162.593C164.153 155.405 168.219 146.9 169.992 137.745C171.096 137.512 171.934 136.268 171.934 134.758C171.934 133.641 171.478 132.674 170.788 132.153L177.561 130.516L190.183 127.464L190.364 127.422L171 121.861C171.563 121.266 171.913 120.341 171.913 119.32C171.913 117.725 171.053 116.407 169.917 116.109C169.694 114.982 169.429 113.876 169.132 112.771C169.132 112.771 172.667 104.541 173.463 100.894L176.34 99.1295C176.34 99.1295 178.028 89.6988 178.484 81.7884L178.527 81.7246C187.848 94.4939 193.347 110.229 193.347 127.22C193.347 148.367 184.981 168.111 169.779 182.815L166.393 186.09H177.349V195.159H185.714L185.703 195.138Z" fill="#384B43"/>
</g>
<defs>
<clipPath id="clip0_300_1132">
<rect width="238" height="238" fill="white"/>
</clipPath>
</defs>
</svg>
